<svg xmlns='http://www.w3.org/2000/svg' version='1.1' width='794px' height='575px'><svg xmlns="http://www.w3.org/2000/svg" id="graphic" fill="currentColor" font-family="swap" width="773" height="554" x="10.5" y="10.5"><g class="facets"><g class="fl-facets"><g class="fl-facet" transform="translate(0, 0)" opacity="1"><rect class="fl-facet-rect" width="773" height="554" fill="none"/><rect class="fl-facet-primary-rect" width="773" height="554" y="0" fill="none"/><g class="fl-facet-title"><rect class="fl-facet-title-bg" height="0" width="0" fill="rgb(238, 238, 238)" x="386.5" opacity="0"/><text class="fl-facet-title-text" font-size="77.3" font-weight="600" transform="translate(386.5, 73.435)" opacity="0" text-anchor="middle"><tspan x="0" y="0" dx="0" text-anchor="middle"/></text></g><g class="fl-facet-primary" transform="translate(0, 0)"><g class="fl-chart ready"><rect class="fl-chart-debug-rectangle" x="0" y="0" style="stroke-width: 1px; fill: none; display: none; stroke: red;" width="773" height="554"/><clipPath class="fl-data-clip-path" id="fl-axes-1-clip-path"><rect x="0" y="0" width="773" height="554"/></clipPath><clipPath class="fl-grid-clip-path" id="fl-axes-1-grid-clip-path"><rect x="-1.5" y="-1.5" width="776" height="557"/></clipPath><g class="fl-chart-background"><rect class="fl-chart-fill" x="0" y="0" width="773" height="554" fill="none"/><image class="fl-chart-image" x="0" y="0" width="773" height="554" preserveAspectRatio="none"/><rect class="fl-chart-interaction" x="0" y="0" width="773" height="554" style="opacity: 0;"/></g><g class="fl-data-background" clip-path="url(#fl-axes-1-clip-path)"/><g class="fl-gridlines" clip-path="url(#fl-axes-1-grid-clip-path)" style="pointer-events: none;"><g class="fl-gridlines-vertical"/><g class="fl-gridlines-horizontal"/></g><g class="fl-axes" aria-hidden="true"><g class="fl-x-axes"><g class="fl-axis fl-x-axis fl-bottom-axis"><g class="fl-axis-line"/><g class="fl-axis-ticks"/><g class="fl-axis-title"/></g><g class="fl-axis fl-x-axis fl-top-axis"><g class="fl-axis-line"/><g class="fl-axis-ticks"/><g class="fl-axis-title"/></g></g><g class="fl-y-axes"><g class="fl-axis fl-y-axis fl-left-axis"><g class="fl-axis-line"/><g class="fl-axis-ticks"/><g class="fl-axis-title"/></g><g class="fl-axis fl-y-axis fl-right-axis"><g class="fl-axis-line"/><g class="fl-axis-ticks"/><g class="fl-axis-title"/></g></g></g><g class="fl-data-foreground" clip-path="url(#fl-axes-1-clip-path)"/></g></g></g></g></g><g class="annotations below"/><g id="areas"/><g id="lines"/><g id="data-points"><g class="series" transform="translate(0,0)"><clipPath id="clip-data-points-0"><rect x="-3.5" y="-2.8000000000000003" height="556.8" width="776.5"/></clipPath><path class="data-point" data-type="arc" fill="#0f6cc9" opacity="1" d="M0,-277A277,277,0,1,1,-55.32,-271.42L0,0Z" stroke-width="0" transform="translate(386.5,277)" tabindex="0" role="img" aria-roledescription="data point" aria-label="Houses, Proportion of profit making resales: 97%" visibility="visible" id="point-0-0"/><path class="data-point" data-type="arc" fill="#c21616" opacity="1" d="M-55.32,-271.42A277,277,0,0,1,0,-277L0,0Z" stroke-width="0" transform="translate(386.5,277)" tabindex="0" role="img" aria-roledescription="data point" aria-label="Houses, Proportion of loss making resales: 3%" visibility="visible" id="point-0-1"/></g></g><g id="lines-secondary"/><g id="data-points-secondary"/><g id="data-point-labels"><g class="series" transform="translate(0,0)"/></g><g id="stack-labels"/><g class="annotations above"><g id="axes-highlights"><g class="axis-highlights-facet"><defs><pattern class="fl-pattern-auto" width="4" height="4" patternUnits="userSpaceOnUse" id="fl-pattern-diagonal-x"><path stroke-width="1" shape-rendering="auto" stroke-linecap="square" d="M 0 4 l 4 -4 M -1 1 l 2 -2 M 3 5 l 2 -2" style="stroke: currentcolor;"/></pattern><pattern class="fl-pattern-auto" width="4" height="4" patternUnits="userSpaceOnUse" id="fl-pattern-dots-x"><path stroke-width="1" shape-rendering="auto" stroke-linecap="square" d="M 1 2 A 1.2 1.2 0 1 1 1 2.1 Z" style="fill: currentcolor;"/></pattern><pattern class="fl-pattern-auto" width="4" height="4" patternUnits="userSpaceOnUse" id="fl-pattern-grid-x"><path stroke-width="1" shape-rendering="auto" stroke-linecap="square" d="M 2 0 l 0 4 M 0 2 l 4 0" style="stroke: currentcolor;"/></pattern><pattern class="fl-pattern-auto" width="4" height="4" patternUnits="userSpaceOnUse" id="fl-pattern-diagonal-y"><path stroke-width="1" shape-rendering="auto" stroke-linecap="square" d="M 0 4 l 4 -4 M -1 1 l 2 -2 M 3 5 l 2 -2" style="stroke: currentcolor;"/></pattern><pattern class="fl-pattern-auto" width="4" height="4" patternUnits="userSpaceOnUse" id="fl-pattern-grid-y"><path stroke-width="1" shape-rendering="auto" stroke-linecap="square" d="M 2 0 l 0 4 M 0 2 l 4 0" style="stroke: currentcolor;"/></pattern><pattern class="fl-pattern-auto" width="4" height="4" patternUnits="userSpaceOnUse" id="fl-pattern-dots-y"><path stroke-width="1" shape-rendering="auto" stroke-linecap="square" d="M 1 2 A 1.2 1.2 0 1 1 1 2.1 Z" style="fill: currentcolor;"/></pattern></defs><g class="axis-highlights" transform="" style="opacity: 1;"/></g></g></g></svg><svg xmlns="http://www.w3.org/2000/svg" id="fl-layout-svg-screenshot-container" class="flourish-screenshot-svg-container" style="left: 0px; top: 0px; width: 794px; height: 575px; position: absolute;" x="0" y="0"><text x="0px" y="0px" font-family="swap" font-size="42px" font-weight="700" fill="rgb(51, 51, 51)" style="dominant-baseline: text-before-edge;"><tspan dy="0" dx="0" x="0" opacity="1"/></text><text x="0px" y="0px" font-family="swap" font-size="22.4px" font-weight="400" fill="rgb(51, 51, 51)" style="dominant-baseline: text-before-edge;"><tspan dy="0" dx="0" x="0" opacity="1"/></text><text x="0px" y="0px" font-family="swap" font-size="16.8px" font-weight="400" fill="rgb(51, 51, 51)" style="dominant-baseline: text-before-edge;"><tspan dy="0" dx="0" x="0" opacity="1"/></text><text x="0px" y="0px" font-family="swap" font-size="21px" font-weight="400" fill="rgb(51, 51, 51)" style="dominant-baseline: text-before-edge;"><tspan dy="0" dx="0" x="0" opacity="1"/></text></svg></svg>